# xmcd
#
# Track frame offsets:
#	150
#	11945
#	24725
#	37175
#	46987
#	60090
#	71070
#	81247
#	94167
#	105945
#
# Disc length: 1592 seconds
#
# Revision: 0
# Processed by: cddbd v1.4PL0 Copyright (c) Steve Scherf et al.
# Submitted via: dBpowerAMP V4.0
#
DISCID=7d06360a
DTITLE=Various Artist - Country Music Cavalcade - Disk 1
DYEAR=1997
DGENRE=Country
TTITLE0=Sweet Dreams of You
TTITLE1=You're My Best Friend
TTITLE2=For Loving You
TTITLE3=My Heart Is An Open Book
TTITLE4=Statue of a Fool
TTITLE5=Sweet Nothin's
TTITLE6=Honeycomb
TTITLE7=San Antonio Stroll
TTITLE8=Chattanoogie Shoe Shine Boy
TTITLE9=You've Never Been This Far Before
EXTD=
EXTT0=
EXTT1=
EXTT2=
EXTT3=
EXTT4=
EXTT5=
EXTT6=
EXTT7=
EXTT8=
EXTT9=
PLAYORDER=
